<svg enable-background="new 0 0 400 400" viewBox="0 0 400 400" xmlns="http://www.w3.org/2000/svg"><path d="m374.8 390.4.4-.4c.7.5 1.3 1 1.8 1.4l-.5.5c-.5-.6-1.1-1.1-1.7-1.5zm1 7.3-.6-.3c.5-1.4 1.1-2.8 1.5-4.3.2.1.4.2.6.3-.5 1.3-1 2.8-1.5 4.3zm-.4-10.3.4-.4c.4.3 1 .8 1.7 1.4l-.5.5c-.4-.5-1-1-1.6-1.5zm2.5.3h1.7v-1h.6v1h3.5v-1h.6v1h1.8v.5h-1.8v1.4h-2v1h3.2v2h-3.2v.9h3.3v.5h-3.4c0 .3-.1.6-.1.9h4v.5h-3.7c.7.9 1.9 1.5 3.8 1.7-.1.2-.2.4-.3.6-2.1-.4-3.5-1.1-4-2.1-.4 1-1.8 1.7-4 2.2-.1-.2-.2-.4-.3-.6 2.1-.4 3.4-1 3.8-1.8h-3.4v-.5h3.6c.1-.3.1-.6.2-.9h-3.3v-.5h3.4c0-.3 0-.6 0-.9h-3.2v-2h3.3v-1h-2.1v-1.4h-1.7v-.5zm1.1 3.5v1h2.7c0-.3 0-.4 0-.4 0-.1 0-.2 0-.2 0-.1 0-.2 0-.3h-2.7zm1.2-3v.9h3.5v-.9zm4.7 3h-2.6v.6.4h2.6z" fill="#fbfcfa"/><path d="m393.6 386.7h.6v1.5h2.7v6.1h1.1v.6h-11v-.6h1.1v-6.1h2.7v-1.5h.6v1.5h2.1v-1.5zm-2.7 8.8.4.6c-1.2.6-2.5 1.3-3.8 1.9-.1-.2-.2-.4-.3-.6 1.2-.6 2.5-1.2 3.7-1.9zm-2.2-6.7v2.4h2.1v-2.4zm0 3v2.5h2.1v-2.5zm2.8-3v2.4h2.1v-2.4zm0 3v2.5h2.1v-2.5zm6 6.1c-1.4-.7-2.7-1.3-3.9-1.8l.3-.6c1.5.6 2.7 1.2 3.9 1.7zm-1.2-9.1h-2.1v2.4h2.1zm-2.1 3v2.5h2.1v-2.5z" fill="#fbfcfa"/><path d="m196.1 229.99c-3.54 6.66-6.62 12.43-9.68 18.21-.31.59-.89 1.28-.77 1.8 1.07 4.81-2.15 8.53-3.1 12.8-1.35 6.08-1.98 12.33-3.53 18.35-2.25 8.76-2.49 17.67-3.2 26.58-.65 8.17-.98 16.52-3.01 24.39-3.13 12.09-4.75 24.26-5.41 36.66-.23 4.27-.67 4.6-3.36 5.77-.17-.12-.49-.24-.49-.37-.17-8.67-.33-17.35-.47-26.02-.02-1.11-.01-2.23.07-3.34.32-4.64.68-9.27.99-13.91.06-.88.15-1.81-.06-2.65-1.78-6.99-.33-13.7 1.62-20.38.25-.85.36-1.75.47-2.64 1.85-14.95 3.56-29.91 5.64-44.83.44-3.12 2.27-6.04 3.41-9.07 1.85-4.91 3.45-9.93 5.54-14.73 2.79-6.43 6.03-12.68 8.89-19.08.62-1.39.99-3.24.64-4.68-1.86-7.84-4.54-15.35-8.34-22.54-6.85-12.94-13.27-26.1-19.79-39.21-.67-1.35-.87-2.93-1.25-4.42-.13-.53.08-1.4-.21-1.61-3.59-2.5-3.22-6.96-5.2-10.2-.85-1.38-2.48-2.48-4-3.12-.4-.17-1.85 1.74-2.59 2.84-5.53 8.27-10.9 16.64-16.54 24.83-1.93 2.81-4.45 5.2-7.21 7.33.25-5.78 2.29-10.31 6.76-12.76.5-2.16.52-4.1 1.35-5.58 3.77-6.71 7.79-13.28 11.67-19.93 1.34-2.3 2.53-4.7 3.82-7.03.36-.65.75-1.7 1.26-1.79 3.29-.56 3.71-3.42 5.02-5.68 4.82-8.3 10.02-16.4 14.62-24.82 5.39-9.85 11.5-19.14 18.72-27.75 1.14-1.36 1.66-3.57 1.73-5.42.24-6.37-.07-12.76.27-19.12.21-3.93 1.24-7.81 1.92-11.8 3.16.13 3.87 1.76 4.23 4.12.43 2.81 1.66 5.53 1.9 8.34.46 5.42 1.44 11.07.41 16.27-1.22 6.17-.47 11.04 3.69 15.64 4.79 5.29 9.39 10.75 14.08 16.14 5.14 5.9 10.14 11.92 15.47 17.64 6.52 7.01 13.33 13.75 19.94 20.68 1.32 1.39 2.25 3.15 3.39 4.73 2.09 2.88 3.91 6.02 6.36 8.55 3.8 3.92 5.54 8.84 7.45 13.69.42 1.06-.38 2.61-.62 3.93-1.12-.66-2.54-1.07-3.32-2.01-5.1-6.22-10.04-12.57-15.1-18.82-.89-1.09-2.13-1.89-3.54-3.12-.62 1.69-1.27 2.97-1.57 4.33-2.51 11.35-8.48 20.99-14.53 30.69-4.35 6.97-8.02 14.24-14.47 19.79-2.05 1.77-2.6 5.55-3.3 8.53-.89 3.75-2.23 7.11-4.5 10.3-1.97 2.77-3.43 6.03-4.49 9.28-1.15 3.56-.73 7.17.89 10.76 1.74 3.85 1.98 8.69 4.5 11.78 2.33 2.86 3.43 5.98 4.93 9.06 3.03 6.21 6.03 12.43 8.88 18.72.86 1.9 1.12 4.07 1.77 6.08.78 2.42 1.68 4.81 2.54 7.21.23.62.7 1.21.75 1.84.33 4.04.36 7.97 1.83 12.02 1.38 3.81.91 8.36.94 12.58.06 8.25-.12 16.51-.14 24.76-.01 4.19.41 8.4.08 12.56-.32 4.05-1.62 8.02-2.01 12.07-.43 4.55-.23 9.16-.5 13.73-.08 1.42-.82 2.8-1.26 4.2-.56-.04-1.13-.08-1.69-.12-.39-2.97-.95-5.92-1.15-8.9-1.19-17.73-2.15-35.48-3.49-53.21-.81-10.66-2.12-21.29-3.35-31.92-.2-1.7-1.1-3.34-1.84-4.94-4.99-10.73-10.08-21.41-15.02-32.16-.92-2.01-1.23-4.29-2.07-6.34-.52-1.29-1.53-2.43-2.27-3.56zm-20.25-116.93c.37-.28.74-.56 1.1-.84 1.51 1.26 3.17 2.39 4.51 3.81 2.36 2.5 4.2 5.63 6.89 7.65 2.97 2.23 5.23 4.73 6.89 7.97.55 1.08 1.97 2.81 2.4 2.65 1.45-.54 2.77-1.67 3.88-2.83.65-.67.75-1.84 1.21-2.73 4.41-8.5 8.82-17.01 13.32-25.46.39-.73 1.45-1.11 2.2-1.65.34.96 1.09 2.01.93 2.88-.82 4.5-1.39 9.13-2.95 13.39-3.14 8.57-6.81 16.94-10.38 25.35-.74 1.74-.57 2.88.9 4.04 3.39 2.68 5.92 5.97 7.5 10.07.62 1.6 2 2.94 3.13 4.32 2.5 3.06 4.74 2.95 6.8-.54.94-1.6 1.3-3.54 1.98-5.3.48-1.23.85-2.59 1.63-3.61 5.83-7.53 10.62-15.57 13.35-24.78.62-2.1.43-3.37-1.15-4.96-8.02-8.08-16.44-15.83-21.92-26.07-.59-1.11-1.87-1.9-2.91-2.72-7.52-5.91-14.15-12.64-19.44-20.65-1.25-1.89-2.68-2.49-4.41-.14-10.6 14.42-21.37 28.71-31.9 43.19-2.57 3.53-3.66 7.86-2.03 12.1 1.74 4.52.25 10.43 5.6 13.45.07.04.07.21.13.3 2.99 5.35 6.01 10.68 8.96 16.04.69 1.25 1.43 2.57 1.69 3.95.98 5.25 5.1 8.36 7.64 12.53.41.02.81.05 1.22.07 4.33-9.34 8.66-18.69 13.2-28.49-3.06-3.92-6.03-8.61-9.89-12.41-3.81-3.76-4.46-9.76-9.48-12.49-.36-.2-.57-.94-.59-1.43-.04-2.23-.01-4.45-.01-6.66zm20.43 91.44c2.73-3.53 4.9-6.09 6.78-8.84 4.22-6.17 8.3-12.43 12.42-18.67 2.06-3.13 1.56-7.32-1.09-10.12-2.54-2.68-4.93-5.5-7.57-8.07-1.85-1.8-4.02-3.27-6.81-5.5-5.06 8.95-9.78 17.14-14.3 25.44-.6 1.1-.77 2.97-.25 4.07 3.34 7.03 6.92 13.94 10.82 21.69z" fill="#010101"/></svg>